<svg width="35" height="32" viewBox="0 0 128 118" fill="none" xmlns="http://www.w3.org/2000/svg">
<path d="M35.7421 16.6503C48.5067 -5.01258 79.8402 -5.01253 92.6048 16.6504L122.77 67.8441C135.733 89.8428 119.872 117.597 94.3387 117.597H34.0082C8.47451 117.597 -7.38567 89.8427 5.5768 67.844L35.7421 16.6503Z" fill="#130856"></path>
<path fill-rule="evenodd" clip-rule="evenodd" d="M22.6149 102.258C25.1349 103.658 27.9549 104.438 30.8249 104.438H31.1749C34.0649 104.368 36.8649 103.658 39.3249 102.188C41.9249 100.718 44.0349 98.5976 45.5049 96.0076L55.2749 79.1476H73.1149L82.8749 96.0076C84.3449 98.5976 86.4649 100.708 88.9849 102.188C91.5049 103.658 94.3949 104.438 97.3349 104.438H97.6149C99.0149 104.438 100.355 104.218 101.685 103.868C103.165 103.518 104.495 102.888 105.765 102.188L105.835 102.118C109.695 99.8676 112.435 96.2876 113.625 91.9976C114.755 87.7176 114.125 83.0776 111.935 79.2176L87.9834 37.8694C87.2744 36.6453 85.859 36.0153 84.4749 36.3076L82.2249 43.2576C98.0516 69.9443 105.965 84.7409 105.965 87.6476C105.965 89.8976 105.055 92.0776 103.435 93.6176C101.895 95.2376 99.7149 96.1476 97.4649 96.1476C95.9249 96.1476 94.4449 95.7276 93.1149 95.0176C91.8449 94.2476 90.7949 93.1976 90.0249 91.8676L68.9549 55.4176L76.8949 41.7176L76.9649 41.5176C80.7549 34.9876 82.5849 26.8276 78.0149 20.1576C76.6149 18.1876 74.8549 16.6476 72.8149 15.4576C70.7149 14.2576 68.4649 13.5576 66.1449 13.2776C59.2649 12.5076 53.0849 15.7376 49.6449 21.6376L16.4249 79.2276C14.9549 81.7576 14.1749 84.5676 14.1749 87.5176C14.1049 90.4676 14.9549 93.4176 16.4249 96.0176C17.9049 98.6176 20.0749 100.718 22.6049 102.268L22.6149 102.258ZM28.1549 75.3576C28.7249 74.4476 29.2849 73.5376 29.8449 72.6176L48.6049 40.1676C49.2349 38.9776 49.8649 37.7776 50.4949 36.5876C52.2549 33.4276 56.8949 24.4376 59.9149 22.6776C61.1749 21.9776 62.6549 21.5576 64.1949 21.5576C65.7449 21.5576 67.1449 21.9776 68.4749 22.6776C71.2949 24.3676 73.0449 26.6876 72.6249 30.0576C72.2049 33.1476 70.3749 36.4476 68.8349 39.1176L59.4149 55.4076L68.3349 70.8676H41.207C40.1352 70.8676 39.1448 71.4394 38.6089 72.3677L37.0849 75.0076C36.3228 76.3278 36.7752 78.0158 38.0953 78.7779C38.5149 79.0201 38.9908 79.1476 39.4753 79.1476H45.6549L38.2849 91.8676C37.5849 93.1976 36.5349 94.2476 35.2649 94.9576C33.9349 95.7276 32.4549 96.1476 30.9749 96.1476H30.3449V96.0776C28.3049 95.9376 26.3449 95.0976 24.8749 93.6876C23.2549 92.0776 22.4149 89.8976 22.4149 87.6476C22.4149 84.4176 26.4149 78.2376 28.1749 75.3576H28.1549Z" fill="#34C5F6"></path>
</svg>