<?xml version="1.0" standalone="no"?>
<!DOCTYPE svg PUBLIC "-//W3C//DTD SVG 20010904//EN"
 "http://www.w3.org/TR/2001/REC-SVG-20010904/DTD/svg10.dtd">
<svg version="1.0" xmlns="http://www.w3.org/2000/svg"
 width="1667.000000pt" height="354.000000pt" viewBox="0 0 1667.000000 354.000000"
 preserveAspectRatio="xMidYMid meet">

<g transform="translate(0.000000,354.000000) scale(0.100000,-0.100000)"
fill="#000000" stroke="none">
<path d="M1804 3136 c-118 -27 -239 -107 -303 -200 -50 -73 -1047 -1809 -1066
-1856 -26 -67 -32 -221 -10 -296 67 -232 251 -374 485 -374 148 0 280 57 375
161 22 24 112 167 199 317 l158 272 270 -2 269 -3 153 -265 c184 -318 226
-369 354 -433 l85 -42 131 0 c131 0 131 0 209 37 147 70 256 206 288 355 15
77 6 204 -20 273 -27 71 -755 1329 -783 1353 -11 9 -35 17 -52 17 -33 0 -33 0
-65 -105 l-32 -105 79 -133 c328 -551 577 -1012 618 -1141 32 -102 -12 -210
-110 -271 -44 -27 -58 -30 -130 -30 -70 0 -87 4 -128 28 -26 15 -60 46 -76 70
-44 65 -642 1103 -642 1114 0 6 55 104 122 219 191 328 222 408 221 574 0 140
-42 241 -139 335 -115 112 -305 166 -460 131z m211 -270 c93 -43 145 -114 145
-198 0 -94 -30 -158 -243 -526 -81 -139 -147 -259 -147 -265 0 -7 58 -111 128
-232 l128 -220 -416 -5 c-361 -4 -419 -7 -440 -21 -14 -9 -40 -46 -59 -81 -32
-60 -34 -67 -21 -97 19 -47 55 -61 160 -61 49 0 90 -3 90 -7 0 -19 -230 -401
-259 -429 -67 -66 -197 -82 -288 -35 -54 27 -108 91 -123 146 -27 97 3 187
137 405 103 167 604 1036 713 1235 107 196 200 336 244 369 69 52 169 61 251
22z"/>
</g>
</svg>
